<mxfile host="Electron" modified="2023-08-31T01:44:37.479Z" agent="Mozilla/5.0 (Windows NT 10.0; Win64; x64) AppleWebKit/537.36 (KHTML, like Gecko) draw.io/21.6.8 Chrome/114.0.5735.289 Electron/25.5.0 Safari/537.36" etag="aV-ucvy5Sc17mnLFZjl5" version="21.6.8" type="device">
  <diagram name="Página-1" id="Z6KHZ3DAZDIHzFVcaP3U">
    <mxGraphModel dx="954" dy="664" grid="1" gridSize="10" guides="1" tooltips="1" connect="1" arrows="1" fold="1" page="1" pageScale="1" pageWidth="827" pageHeight="1169" math="0" shadow="0">
      <root>
        <mxCell id="0" />
        <mxCell id="1" parent="0" />
        <mxCell id="uB1ZUkfDz_n5ZTlC2Gf3-1" value="Início" style="rounded=1;whiteSpace=wrap;html=1;" vertex="1" parent="1">
          <mxGeometry x="352.5" y="30" width="100" height="40" as="geometry" />
        </mxCell>
        <mxCell id="uB1ZUkfDz_n5ZTlC2Gf3-3" value="Digite dois valores inteiros&lt;br style=&quot;border-color: var(--border-color);&quot;&gt;VA e VB" style="rounded=0;whiteSpace=wrap;html=1;" vertex="1" parent="1">
          <mxGeometry x="322.5" y="110" width="160" height="60" as="geometry" />
        </mxCell>
        <mxCell id="uB1ZUkfDz_n5ZTlC2Gf3-6" value="" style="rhombus;whiteSpace=wrap;html=1;" vertex="1" parent="1">
          <mxGeometry x="336.25" y="200" width="132.5" height="80" as="geometry" />
        </mxCell>
        <mxCell id="uB1ZUkfDz_n5ZTlC2Gf3-7" value="VA &amp;gt; VB?" style="text;strokeColor=none;align=center;fillColor=none;html=1;verticalAlign=middle;whiteSpace=wrap;rounded=0;" vertex="1" parent="1">
          <mxGeometry x="348.75" y="225" width="107.5" height="30" as="geometry" />
        </mxCell>
        <mxCell id="uB1ZUkfDz_n5ZTlC2Gf3-8" value="" style="endArrow=classic;html=1;rounded=0;exitX=1;exitY=0.5;exitDx=0;exitDy=0;entryX=0.5;entryY=0;entryDx=0;entryDy=0;" edge="1" parent="1" source="uB1ZUkfDz_n5ZTlC2Gf3-6" target="uB1ZUkfDz_n5ZTlC2Gf3-9">
          <mxGeometry width="50" height="50" relative="1" as="geometry">
            <mxPoint x="390" y="370" as="sourcePoint" />
            <mxPoint x="510" y="250" as="targetPoint" />
            <Array as="points">
              <mxPoint x="560" y="240" />
            </Array>
          </mxGeometry>
        </mxCell>
        <mxCell id="uB1ZUkfDz_n5ZTlC2Gf3-9" value="VA / VB" style="rounded=0;whiteSpace=wrap;html=1;" vertex="1" parent="1">
          <mxGeometry x="500" y="280" width="120" height="60" as="geometry" />
        </mxCell>
        <mxCell id="uB1ZUkfDz_n5ZTlC2Gf3-10" value="VB / VA" style="rounded=0;whiteSpace=wrap;html=1;" vertex="1" parent="1">
          <mxGeometry x="180" y="280" width="120" height="60" as="geometry" />
        </mxCell>
        <mxCell id="uB1ZUkfDz_n5ZTlC2Gf3-12" value="" style="endArrow=classic;html=1;rounded=0;exitX=0;exitY=0.5;exitDx=0;exitDy=0;" edge="1" parent="1" source="uB1ZUkfDz_n5ZTlC2Gf3-6" target="uB1ZUkfDz_n5ZTlC2Gf3-10">
          <mxGeometry width="50" height="50" relative="1" as="geometry">
            <mxPoint x="390" y="370" as="sourcePoint" />
            <mxPoint x="220" y="240" as="targetPoint" />
            <Array as="points">
              <mxPoint x="240" y="240" />
            </Array>
          </mxGeometry>
        </mxCell>
        <mxCell id="uB1ZUkfDz_n5ZTlC2Gf3-14" value="SIM" style="text;strokeColor=none;align=center;fillColor=none;html=1;verticalAlign=middle;whiteSpace=wrap;rounded=0;" vertex="1" parent="1">
          <mxGeometry x="475" y="210" width="50" height="30" as="geometry" />
        </mxCell>
        <mxCell id="uB1ZUkfDz_n5ZTlC2Gf3-15" value="NÃO" style="text;strokeColor=none;align=center;fillColor=none;html=1;verticalAlign=middle;whiteSpace=wrap;rounded=0;" vertex="1" parent="1">
          <mxGeometry x="280" y="210" width="50" height="30" as="geometry" />
        </mxCell>
        <mxCell id="uB1ZUkfDz_n5ZTlC2Gf3-16" value="Resto = 0?" style="rhombus;whiteSpace=wrap;html=1;" vertex="1" parent="1">
          <mxGeometry x="336.25" y="360" width="132.5" height="80" as="geometry" />
        </mxCell>
        <mxCell id="uB1ZUkfDz_n5ZTlC2Gf3-17" value="" style="endArrow=classic;html=1;rounded=0;exitX=0.5;exitY=1;exitDx=0;exitDy=0;entryX=0;entryY=0.5;entryDx=0;entryDy=0;" edge="1" parent="1" source="uB1ZUkfDz_n5ZTlC2Gf3-10" target="uB1ZUkfDz_n5ZTlC2Gf3-16">
          <mxGeometry width="50" height="50" relative="1" as="geometry">
            <mxPoint x="390" y="370" as="sourcePoint" />
            <mxPoint x="440" y="320" as="targetPoint" />
            <Array as="points">
              <mxPoint x="240" y="400" />
            </Array>
          </mxGeometry>
        </mxCell>
        <mxCell id="uB1ZUkfDz_n5ZTlC2Gf3-18" value="" style="endArrow=classic;html=1;rounded=0;exitX=0.5;exitY=1;exitDx=0;exitDy=0;" edge="1" parent="1" source="uB1ZUkfDz_n5ZTlC2Gf3-9">
          <mxGeometry width="50" height="50" relative="1" as="geometry">
            <mxPoint x="390" y="370" as="sourcePoint" />
            <mxPoint x="470" y="400" as="targetPoint" />
            <Array as="points">
              <mxPoint x="560" y="400" />
            </Array>
          </mxGeometry>
        </mxCell>
        <mxCell id="uB1ZUkfDz_n5ZTlC2Gf3-19" value="" style="endArrow=classic;html=1;rounded=0;entryX=0.5;entryY=0;entryDx=0;entryDy=0;exitX=0.5;exitY=1;exitDx=0;exitDy=0;" edge="1" parent="1" source="uB1ZUkfDz_n5ZTlC2Gf3-1" target="uB1ZUkfDz_n5ZTlC2Gf3-3">
          <mxGeometry width="50" height="50" relative="1" as="geometry">
            <mxPoint x="403" y="60" as="sourcePoint" />
            <mxPoint x="440" y="320" as="targetPoint" />
          </mxGeometry>
        </mxCell>
        <mxCell id="uB1ZUkfDz_n5ZTlC2Gf3-20" value="" style="endArrow=classic;html=1;rounded=0;exitX=0.5;exitY=1;exitDx=0;exitDy=0;entryX=0.5;entryY=0;entryDx=0;entryDy=0;" edge="1" parent="1" source="uB1ZUkfDz_n5ZTlC2Gf3-3" target="uB1ZUkfDz_n5ZTlC2Gf3-6">
          <mxGeometry width="50" height="50" relative="1" as="geometry">
            <mxPoint x="390" y="370" as="sourcePoint" />
            <mxPoint x="440" y="320" as="targetPoint" />
          </mxGeometry>
        </mxCell>
        <mxCell id="uB1ZUkfDz_n5ZTlC2Gf3-21" value="" style="endArrow=classic;html=1;rounded=0;exitX=0.5;exitY=1;exitDx=0;exitDy=0;" edge="1" parent="1" source="uB1ZUkfDz_n5ZTlC2Gf3-16" target="uB1ZUkfDz_n5ZTlC2Gf3-23">
          <mxGeometry width="50" height="50" relative="1" as="geometry">
            <mxPoint x="390" y="370" as="sourcePoint" />
            <mxPoint x="280" y="480" as="targetPoint" />
            <Array as="points">
              <mxPoint x="403" y="460" />
              <mxPoint x="340" y="460" />
              <mxPoint x="270" y="460" />
            </Array>
          </mxGeometry>
        </mxCell>
        <mxCell id="uB1ZUkfDz_n5ZTlC2Gf3-22" value="" style="endArrow=classic;html=1;rounded=0;exitX=0.5;exitY=1;exitDx=0;exitDy=0;entryX=0.41;entryY=-0.067;entryDx=0;entryDy=0;entryPerimeter=0;" edge="1" parent="1" source="uB1ZUkfDz_n5ZTlC2Gf3-16" target="uB1ZUkfDz_n5ZTlC2Gf3-24">
          <mxGeometry width="50" height="50" relative="1" as="geometry">
            <mxPoint x="390" y="370" as="sourcePoint" />
            <mxPoint x="520" y="480" as="targetPoint" />
            <Array as="points">
              <mxPoint x="403" y="460" />
              <mxPoint x="518" y="460" />
            </Array>
          </mxGeometry>
        </mxCell>
        <mxCell id="uB1ZUkfDz_n5ZTlC2Gf3-23" value="Os valors são divisíveis" style="rounded=0;whiteSpace=wrap;html=1;" vertex="1" parent="1">
          <mxGeometry x="210" y="500" width="120" height="60" as="geometry" />
        </mxCell>
        <mxCell id="uB1ZUkfDz_n5ZTlC2Gf3-24" value="Os valors não são divisíveis" style="rounded=0;whiteSpace=wrap;html=1;" vertex="1" parent="1">
          <mxGeometry x="468.75" y="500" width="120" height="60" as="geometry" />
        </mxCell>
        <mxCell id="uB1ZUkfDz_n5ZTlC2Gf3-25" value="SIM" style="text;strokeColor=none;align=center;fillColor=none;html=1;verticalAlign=middle;whiteSpace=wrap;rounded=0;" vertex="1" parent="1">
          <mxGeometry x="302.5" y="430" width="50" height="30" as="geometry" />
        </mxCell>
        <mxCell id="uB1ZUkfDz_n5ZTlC2Gf3-26" value="NÃO" style="text;strokeColor=none;align=center;fillColor=none;html=1;verticalAlign=middle;whiteSpace=wrap;rounded=0;" vertex="1" parent="1">
          <mxGeometry x="450" y="430" width="50" height="30" as="geometry" />
        </mxCell>
      </root>
    </mxGraphModel>
  </diagram>
</mxfile>
